# Reward chest presentation mesh; Unreal units are centimeters.
o SM_RewardChest_Seam
v -50.000000 56.000000 65.400000
v -40.000000 67.000000 65.400000
v -40.000000 67.000000 69.000000
v -50.000000 56.000000 69.000000
v -40.000000 67.000000 65.400000
v 37.000000 67.000000 65.400000
v 37.000000 67.000000 69.000000
v -40.000000 67.000000 69.000000
v 37.000000 67.000000 65.400000
v 47.000000 56.000000 65.400000
v 47.000000 56.000000 69.000000
v 37.000000 67.000000 69.000000
v 47.000000 56.000000 65.400000
v 47.000000 -56.000000 65.400000
v 47.000000 -56.000000 69.000000
v 47.000000 56.000000 69.000000
v 47.000000 -56.000000 65.400000
v 37.000000 -67.000000 65.400000
v 37.000000 -67.000000 69.000000
v 47.000000 -56.000000 69.000000
v 37.000000 -67.000000 65.400000
v -40.000000 -67.000000 65.400000
v -40.000000 -67.000000 69.000000
v 37.000000 -67.000000 69.000000
v -40.000000 -67.000000 65.400000
v -50.000000 -56.000000 65.400000
v -50.000000 -56.000000 69.000000
v -40.000000 -67.000000 69.000000
v -50.000000 -56.000000 65.400000
v -50.000000 56.000000 65.400000
v -50.000000 56.000000 69.000000
v -50.000000 -56.000000 69.000000
vt 0.000000 0.000000
vt 1.000000 0.000000
vt 1.000000 1.000000
vt 0.000000 1.000000
vt 0.000000 0.000000
vt 1.000000 0.000000
vt 1.000000 1.000000
vt 0.000000 1.000000
vt 0.000000 0.000000
vt 1.000000 0.000000
vt 1.000000 1.000000
vt 0.000000 1.000000
vt 0.000000 0.000000
vt 1.000000 0.000000
vt 1.000000 1.000000
vt 0.000000 1.000000
vt 0.000000 0.000000
vt 1.000000 0.000000
vt 1.000000 1.000000
vt 0.000000 1.000000
vt 0.000000 0.000000
vt 1.000000 0.000000
vt 1.000000 1.000000
vt 0.000000 1.000000
vt 0.000000 0.000000
vt 1.000000 0.000000
vt 1.000000 1.000000
vt 0.000000 1.000000
vt 0.000000 0.000000
vt 1.000000 0.000000
vt 1.000000 1.000000
vt 0.000000 1.000000
f 1/1 2/2 3/3
f 1/1 3/3 4/4
f 5/5 6/6 7/7
f 5/5 7/7 8/8
f 9/9 10/10 11/11
f 9/9 11/11 12/12
f 13/13 14/14 15/15
f 13/13 15/15 16/16
f 17/17 18/18 19/19
f 17/17 19/19 20/20
f 21/21 22/22 23/23
f 21/21 23/23 24/24
f 25/25 26/26 27/27
f 25/25 27/27 28/28
f 29/29 30/30 31/31
f 29/29 31/31 32/32
