# Reward chest presentation mesh; Unreal units are centimeters.
o SM_RewardChest_Rays
v 25.257029 2.000000 90.188961
v 25.257029 -2.000000 90.188961
v 134.704156 -5.000000 160.341128
v 134.704156 5.000000 160.341128
v 26.336293 -0.000000 88.505160
v 24.177765 -0.000000 91.872763
v 132.005996 -0.000000 164.550633
v 137.402316 -0.000000 156.131623
v 22.637179 -6.204054 92.790099
v 21.255042 -9.957679 92.790099
v 146.185643 -60.933517 201.135830
v 150.793847 -48.418503 201.135830
v 23.121627 -8.513708 91.230994
v 20.770595 -7.648025 94.349204
v 144.570439 -53.232867 206.334066
v 152.409051 -56.119153 195.937594
v 22.776615 -16.228799 85.038653
v 20.228451 -19.312119 85.038653
v 122.487733 -111.557697 139.484883
v 132.632315 -99.282595 139.484883
v 22.069795 -18.239264 83.178966
v 20.935272 -17.301654 86.898340
v 125.301681 -103.553771 146.888544
v 129.818367 -107.286521 132.081222
v 11.857956 -17.000998 95.779691
v 8.371670 -18.962072 95.779691
v 53.620728 -107.569757 200.726019
v 64.086170 -101.682830 200.726019
v 10.826673 -19.247039 94.404280
v 9.402953 -16.716031 97.155102
v 56.716525 -100.827392 204.854850
v 60.990374 -108.425195 196.597188
v 7.318101 -27.546516 83.572609
v 3.389659 -28.299741 83.572609
v 31.522511 -191.749430 139.403157
v 41.636362 -189.810237 139.403157
v 5.474052 -28.549886 81.677158
v 5.233708 -27.296372 85.468060
v 36.270051 -189.166234 144.283033
v 36.888822 -192.393432 134.523281
v -2.166760 -21.501400 94.904424
v -6.092405 -20.733732 94.904424
v -29.225320 -111.416994 185.679162
v -14.898189 -114.218693 185.679162
v -4.397043 -22.485288 93.469921
v -3.862121 -19.749844 96.338928
v -21.085623 -107.826170 190.914562
v -23.037886 -117.809517 180.443763
v -11.217659 -24.628256 87.100120
v -14.725357 -22.705742 87.100120
v -93.449765 -154.540795 161.582123
v -79.994790 -161.915253 161.582123
v -13.391261 -24.432853 85.300877
v -12.551755 -22.901145 88.899362
v -85.112173 -155.290328 168.483735
v -88.332382 -161.165720 154.680511
v -18.354128 -17.166139 90.506049
v -20.845267 -14.036567 90.506049
v -121.977597 -90.143742 173.872343
v -115.204270 -98.652950 173.872343
v -20.460646 -16.286667 88.835985
v -18.738749 -14.916039 92.176112
v -116.250043 -92.534998 178.413192
v -120.931823 -96.261693 169.331494
v -21.192522 -10.579128 92.519153
v -22.670493 -6.862194 92.519153
v -127.326657 -44.638641 179.778945
v -123.213064 -54.983876 179.778945
v -23.078749 -9.176841 90.945706
v -20.784266 -8.264482 94.092601
v -122.076777 -48.541587 184.158276
v -128.462944 -51.080929 175.399614
v -27.854081 -1.084110 85.268313
v -27.722470 2.913724 85.268313
v -191.003984 14.063623 151.556956
v -191.515388 -1.470848 151.556956
v -28.539089 0.939525 83.414758
v -27.037461 0.890090 87.121868
v -188.342231 6.200343 158.759356
v -194.177141 6.392432 144.354555
v -20.315836 4.466378 95.709865
v -19.085312 8.272401 95.709865
v -103.578759 41.000618 190.566225
v -107.976818 27.397385 190.566225
v -21.077711 6.814632 94.329557
v -18.323437 5.924148 97.090174
v -100.855716 32.607647 195.499632
v -110.699861 35.790356 185.632817
v -22.396972 17.660723 83.511808
v -19.706069 20.620290 83.511808
v -135.364920 129.946889 136.707652
v -142.204049 122.424932 136.707652
v -21.520701 19.567096 81.614998
v -20.582340 18.713917 85.408619
v -137.592028 125.101702 141.528535
v -139.976941 127.270118 131.886768
v -13.157083 16.952239 95.059743
v -9.782325 19.099565 95.059743
v -65.572584 114.547045 203.956403
v -75.982938 107.923039 203.956403
v -12.223406 19.210427 93.635372
v -10.716002 16.841376 96.484113
v -68.452764 107.581053 208.350260
v -73.102759 114.889032 199.562547
v -5.452379 26.652221 86.803542
v -1.485207 27.163643 86.803542
v -11.550891 152.102060 145.888238
v -27.401678 150.058681 145.888238
v -3.577926 27.754496 84.994835
v -3.359660 26.061368 88.612248
v -19.040243 147.697933 153.114904
v -19.912326 154.462807 138.661572
v 1.113650 24.896926 90.819716
v 5.082422 24.398076 90.819716
v 27.872077 169.657960 190.329237
v 14.981455 171.278230 190.329237
v 3.237878 25.760061 89.163620
v 2.958194 23.534941 92.475812
v 20.972558 166.854485 195.708258
v 21.880974 174.081706 184.950216
v 11.299532 21.062385 92.239970
v 14.653740 18.883098 92.239970
v 74.449313 105.391727 172.740980
v 66.047166 110.850747 172.740980
v 13.639138 20.992419 90.652094
v 12.314134 18.953064 93.827845
v 68.588700 105.566989 176.718540
v 71.907779 110.675485 168.763419
v 18.832027 20.417371 85.510243
v 21.569396 17.500728 85.510243
v 135.767124 118.043841 148.692836
v 126.407775 128.016150 148.692836
v 20.760233 19.484179 83.663307
v 19.641190 18.433920 87.357180
v 129.174388 121.234523 155.007704
v 133.000511 124.825469 142.377968
v 19.346235 7.873348 95.627149
v 20.492346 4.041060 95.627149
v 127.563787 29.889557 210.038898
v 123.028497 45.054348 210.038898
v 21.300648 6.370323 94.241081
v 18.537933 5.544086 97.013217
v 119.829956 35.837196 215.523723
v 130.762329 39.106709 204.554072
vt 0.000000 0.000000
vt 1.000000 0.000000
vt 1.000000 1.000000
vt 0.000000 1.000000
vt 0.000000 0.000000
vt 1.000000 0.000000
vt 1.000000 1.000000
vt 0.000000 1.000000
vt 0.000000 0.000000
vt 1.000000 0.000000
vt 1.000000 1.000000
vt 0.000000 1.000000
vt 0.000000 0.000000
vt 1.000000 0.000000
vt 1.000000 1.000000
vt 0.000000 1.000000
vt 0.000000 0.000000
vt 1.000000 0.000000
vt 1.000000 1.000000
vt 0.000000 1.000000
vt 0.000000 0.000000
vt 1.000000 0.000000
vt 1.000000 1.000000
vt 0.000000 1.000000
vt 0.000000 0.000000
vt 1.000000 0.000000
vt 1.000000 1.000000
vt 0.000000 1.000000
vt 0.000000 0.000000
vt 1.000000 0.000000
vt 1.000000 1.000000
vt 0.000000 1.000000
vt 0.000000 0.000000
vt 1.000000 0.000000
vt 1.000000 1.000000
vt 0.000000 1.000000
vt 0.000000 0.000000
vt 1.000000 0.000000
vt 1.000000 1.000000
vt 0.000000 1.000000
vt 0.000000 0.000000
vt 1.000000 0.000000
vt 1.000000 1.000000
vt 0.000000 1.000000
vt 0.000000 0.000000
vt 1.000000 0.000000
vt 1.000000 1.000000
vt 0.000000 1.000000
vt 0.000000 0.000000
vt 1.000000 0.000000
vt 1.000000 1.000000
vt 0.000000 1.000000
vt 0.000000 0.000000
vt 1.000000 0.000000
vt 1.000000 1.000000
vt 0.000000 1.000000
vt 0.000000 0.000000
vt 1.000000 0.000000
vt 1.000000 1.000000
vt 0.000000 1.000000
vt 0.000000 0.000000
vt 1.000000 0.000000
vt 1.000000 1.000000
vt 0.000000 1.000000
vt 0.000000 0.000000
vt 1.000000 0.000000
vt 1.000000 1.000000
vt 0.000000 1.000000
vt 0.000000 0.000000
vt 1.000000 0.000000
vt 1.000000 1.000000
vt 0.000000 1.000000
vt 0.000000 0.000000
vt 1.000000 0.000000
vt 1.000000 1.000000
vt 0.000000 1.000000
vt 0.000000 0.000000
vt 1.000000 0.000000
vt 1.000000 1.000000
vt 0.000000 1.000000
vt 0.000000 0.000000
vt 1.000000 0.000000
vt 1.000000 1.000000
vt 0.000000 1.000000
vt 0.000000 0.000000
vt 1.000000 0.000000
vt 1.000000 1.000000
vt 0.000000 1.000000
vt 0.000000 0.000000
vt 1.000000 0.000000
vt 1.000000 1.000000
vt 0.000000 1.000000
vt 0.000000 0.000000
vt 1.000000 0.000000
vt 1.000000 1.000000
vt 0.000000 1.000000
vt 0.000000 0.000000
vt 1.000000 0.000000
vt 1.000000 1.000000
vt 0.000000 1.000000
vt 0.000000 0.000000
vt 1.000000 0.000000
vt 1.000000 1.000000
vt 0.000000 1.000000
vt 0.000000 0.000000
vt 1.000000 0.000000
vt 1.000000 1.000000
vt 0.000000 1.000000
vt 0.000000 0.000000
vt 1.000000 0.000000
vt 1.000000 1.000000
vt 0.000000 1.000000
vt 0.000000 0.000000
vt 1.000000 0.000000
vt 1.000000 1.000000
vt 0.000000 1.000000
vt 0.000000 0.000000
vt 1.000000 0.000000
vt 1.000000 1.000000
vt 0.000000 1.000000
vt 0.000000 0.000000
vt 1.000000 0.000000
vt 1.000000 1.000000
vt 0.000000 1.000000
vt 0.000000 0.000000
vt 1.000000 0.000000
vt 1.000000 1.000000
vt 0.000000 1.000000
vt 0.000000 0.000000
vt 1.000000 0.000000
vt 1.000000 1.000000
vt 0.000000 1.000000
vt 0.000000 0.000000
vt 1.000000 0.000000
vt 1.000000 1.000000
vt 0.000000 1.000000
vt 0.000000 0.000000
vt 1.000000 0.000000
vt 1.000000 1.000000
vt 0.000000 1.000000
vt 0.000000 0.000000
vt 1.000000 0.000000
vt 1.000000 1.000000
vt 0.000000 1.000000
f 1/1 2/2 3/3
f 1/1 3/3 4/4
f 5/5 6/6 7/7
f 5/5 7/7 8/8
f 9/9 10/10 11/11
f 9/9 11/11 12/12
f 13/13 14/14 15/15
f 13/13 15/15 16/16
f 17/17 18/18 19/19
f 17/17 19/19 20/20
f 21/21 22/22 23/23
f 21/21 23/23 24/24
f 25/25 26/26 27/27
f 25/25 27/27 28/28
f 29/29 30/30 31/31
f 29/29 31/31 32/32
f 33/33 34/34 35/35
f 33/33 35/35 36/36
f 37/37 38/38 39/39
f 37/37 39/39 40/40
f 41/41 42/42 43/43
f 41/41 43/43 44/44
f 45/45 46/46 47/47
f 45/45 47/47 48/48
f 49/49 50/50 51/51
f 49/49 51/51 52/52
f 53/53 54/54 55/55
f 53/53 55/55 56/56
f 57/57 58/58 59/59
f 57/57 59/59 60/60
f 61/61 62/62 63/63
f 61/61 63/63 64/64
f 65/65 66/66 67/67
f 65/65 67/67 68/68
f 69/69 70/70 71/71
f 69/69 71/71 72/72
f 73/73 74/74 75/75
f 73/73 75/75 76/76
f 77/77 78/78 79/79
f 77/77 79/79 80/80
f 81/81 82/82 83/83
f 81/81 83/83 84/84
f 85/85 86/86 87/87
f 85/85 87/87 88/88
f 89/89 90/90 91/91
f 89/89 91/91 92/92
f 93/93 94/94 95/95
f 93/93 95/95 96/96
f 97/97 98/98 99/99
f 97/97 99/99 100/100
f 101/101 102/102 103/103
f 101/101 103/103 104/104
f 105/105 106/106 107/107
f 105/105 107/107 108/108
f 109/109 110/110 111/111
f 109/109 111/111 112/112
f 113/113 114/114 115/115
f 113/113 115/115 116/116
f 117/117 118/118 119/119
f 117/117 119/119 120/120
f 121/121 122/122 123/123
f 121/121 123/123 124/124
f 125/125 126/126 127/127
f 125/125 127/127 128/128
f 129/129 130/130 131/131
f 129/129 131/131 132/132
f 133/133 134/134 135/135
f 133/133 135/135 136/136
f 137/137 138/138 139/139
f 137/137 139/139 140/140
f 141/141 142/142 143/143
f 141/141 143/143 144/144
