# Reward chest presentation mesh; Unreal units are centimeters.
o SM_RewardChest_MagicSparksStable
v -220.000000 0.000000 -220.000000
v 220.000000 0.000000 -220.000000
v 220.000000 0.000000 220.000000
v -220.000000 0.000000 220.000000
v -220.000000 0.000000 -220.000000
v 220.000000 0.000000 -220.000000
v 220.000000 0.000000 220.000000
v -220.000000 0.000000 220.000000
v -220.000000 0.000000 -220.000000
v 220.000000 0.000000 -220.000000
v 220.000000 0.000000 220.000000
v -220.000000 0.000000 220.000000
v -220.000000 0.000000 -220.000000
v 220.000000 0.000000 -220.000000
v 220.000000 0.000000 220.000000
v -220.000000 0.000000 220.000000
v -220.000000 0.000000 -220.000000
v 220.000000 0.000000 -220.000000
v 220.000000 0.000000 220.000000
v -220.000000 0.000000 220.000000
v -220.000000 0.000000 -220.000000
v 220.000000 0.000000 -220.000000
v 220.000000 0.000000 220.000000
v -220.000000 0.000000 220.000000
v -220.000000 0.000000 -220.000000
v 220.000000 0.000000 -220.000000
v 220.000000 0.000000 220.000000
v -220.000000 0.000000 220.000000
v -220.000000 0.000000 -220.000000
v 220.000000 0.000000 -220.000000
v 220.000000 0.000000 220.000000
v -220.000000 0.000000 220.000000
v -220.000000 0.000000 -220.000000
v 220.000000 0.000000 -220.000000
v 220.000000 0.000000 220.000000
v -220.000000 0.000000 220.000000
v -220.000000 0.000000 -220.000000
v 220.000000 0.000000 -220.000000
v 220.000000 0.000000 220.000000
v -220.000000 0.000000 220.000000
v -220.000000 0.000000 -220.000000
v 220.000000 0.000000 -220.000000
v 220.000000 0.000000 220.000000
v -220.000000 0.000000 220.000000
v -220.000000 0.000000 -220.000000
v 220.000000 0.000000 -220.000000
v 220.000000 0.000000 220.000000
v -220.000000 0.000000 220.000000
v -220.000000 0.000000 -220.000000
v 220.000000 0.000000 -220.000000
v 220.000000 0.000000 220.000000
v -220.000000 0.000000 220.000000
v -220.000000 0.000000 -220.000000
v 220.000000 0.000000 -220.000000
v 220.000000 0.000000 220.000000
v -220.000000 0.000000 220.000000
v -220.000000 0.000000 -220.000000
v 220.000000 0.000000 -220.000000
v 220.000000 0.000000 220.000000
v -220.000000 0.000000 220.000000
v -220.000000 0.000000 -220.000000
v 220.000000 0.000000 -220.000000
v 220.000000 0.000000 220.000000
v -220.000000 0.000000 220.000000
v -220.000000 0.000000 -220.000000
v 220.000000 0.000000 -220.000000
v 220.000000 0.000000 220.000000
v -220.000000 0.000000 220.000000
v -220.000000 0.000000 -220.000000
v 220.000000 0.000000 -220.000000
v 220.000000 0.000000 220.000000
v -220.000000 0.000000 220.000000
v -220.000000 0.000000 -220.000000
v 220.000000 0.000000 -220.000000
v 220.000000 0.000000 220.000000
v -220.000000 0.000000 220.000000
v -220.000000 0.000000 -220.000000
v 220.000000 0.000000 -220.000000
v 220.000000 0.000000 220.000000
v -220.000000 0.000000 220.000000
v -220.000000 0.000000 -220.000000
v 220.000000 0.000000 -220.000000
v 220.000000 0.000000 220.000000
v -220.000000 0.000000 220.000000
v -220.000000 0.000000 -220.000000
v 220.000000 0.000000 -220.000000
v 220.000000 0.000000 220.000000
v -220.000000 0.000000 220.000000
v -220.000000 0.000000 -220.000000
v 220.000000 0.000000 -220.000000
v 220.000000 0.000000 220.000000
v -220.000000 0.000000 220.000000
v -220.000000 0.000000 -220.000000
v 220.000000 0.000000 -220.000000
v 220.000000 0.000000 220.000000
v -220.000000 0.000000 220.000000
v -220.000000 0.000000 -220.000000
v 220.000000 0.000000 -220.000000
v 220.000000 0.000000 220.000000
v -220.000000 0.000000 220.000000
v -220.000000 0.000000 -220.000000
v 220.000000 0.000000 -220.000000
v 220.000000 0.000000 220.000000
v -220.000000 0.000000 220.000000
v -220.000000 0.000000 -220.000000
v 220.000000 0.000000 -220.000000
v 220.000000 0.000000 220.000000
v -220.000000 0.000000 220.000000
v -220.000000 0.000000 -220.000000
v 220.000000 0.000000 -220.000000
v 220.000000 0.000000 220.000000
v -220.000000 0.000000 220.000000
v -220.000000 0.000000 -220.000000
v 220.000000 0.000000 -220.000000
v 220.000000 0.000000 220.000000
v -220.000000 0.000000 220.000000
v -220.000000 0.000000 -220.000000
v 220.000000 0.000000 -220.000000
v 220.000000 0.000000 220.000000
v -220.000000 0.000000 220.000000
v -220.000000 0.000000 -220.000000
v 220.000000 0.000000 -220.000000
v 220.000000 0.000000 220.000000
v -220.000000 0.000000 220.000000
v -220.000000 0.000000 -220.000000
v 220.000000 0.000000 -220.000000
v 220.000000 0.000000 220.000000
v -220.000000 0.000000 220.000000
v -220.000000 0.000000 -220.000000
v 220.000000 0.000000 -220.000000
v 220.000000 0.000000 220.000000
v -220.000000 0.000000 220.000000
v -220.000000 0.000000 -220.000000
v 220.000000 0.000000 -220.000000
v 220.000000 0.000000 220.000000
v -220.000000 0.000000 220.000000
v -220.000000 0.000000 -220.000000
v 220.000000 0.000000 -220.000000
v 220.000000 0.000000 220.000000
v -220.000000 0.000000 220.000000
v -220.000000 0.000000 -220.000000
v 220.000000 0.000000 -220.000000
v 220.000000 0.000000 220.000000
v -220.000000 0.000000 220.000000
v -220.000000 0.000000 -220.000000
v 220.000000 0.000000 -220.000000
v 220.000000 0.000000 220.000000
v -220.000000 0.000000 220.000000
v -220.000000 0.000000 -220.000000
v 220.000000 0.000000 -220.000000
v 220.000000 0.000000 220.000000
v -220.000000 0.000000 220.000000
v -220.000000 0.000000 -220.000000
v 220.000000 0.000000 -220.000000
v 220.000000 0.000000 220.000000
v -220.000000 0.000000 220.000000
v -220.000000 0.000000 -220.000000
v 220.000000 0.000000 -220.000000
v 220.000000 0.000000 220.000000
v -220.000000 0.000000 220.000000
vt 0.125000 0.001000
vt 0.875000 0.001000
vt 0.875000 0.999000
vt 0.125000 0.999000
vt 1.125000 0.001000
vt 1.875000 0.001000
vt 1.875000 0.999000
vt 1.125000 0.999000
vt 2.125000 0.001000
vt 2.875000 0.001000
vt 2.875000 0.999000
vt 2.125000 0.999000
vt 3.125000 0.001000
vt 3.875000 0.001000
vt 3.875000 0.999000
vt 3.125000 0.999000
vt 4.125000 0.001000
vt 4.875000 0.001000
vt 4.875000 0.999000
vt 4.125000 0.999000
vt 5.125000 0.001000
vt 5.875000 0.001000
vt 5.875000 0.999000
vt 5.125000 0.999000
vt 6.125000 0.001000
vt 6.875000 0.001000
vt 6.875000 0.999000
vt 6.125000 0.999000
vt 7.125000 0.001000
vt 7.875000 0.001000
vt 7.875000 0.999000
vt 7.125000 0.999000
vt 8.125000 0.001000
vt 8.875000 0.001000
vt 8.875000 0.999000
vt 8.125000 0.999000
vt 9.125000 0.001000
vt 9.875000 0.001000
vt 9.875000 0.999000
vt 9.125000 0.999000
vt 10.125000 0.001000
vt 10.875000 0.001000
vt 10.875000 0.999000
vt 10.125000 0.999000
vt 11.125000 0.001000
vt 11.875000 0.001000
vt 11.875000 0.999000
vt 11.125000 0.999000
vt 12.125000 0.001000
vt 12.875000 0.001000
vt 12.875000 0.999000
vt 12.125000 0.999000
vt 13.125000 0.001000
vt 13.875000 0.001000
vt 13.875000 0.999000
vt 13.125000 0.999000
vt 14.125000 0.001000
vt 14.875000 0.001000
vt 14.875000 0.999000
vt 14.125000 0.999000
vt 15.125000 0.001000
vt 15.875000 0.001000
vt 15.875000 0.999000
vt 15.125000 0.999000
vt 16.125000 0.001000
vt 16.875000 0.001000
vt 16.875000 0.999000
vt 16.125000 0.999000
vt 17.125000 0.001000
vt 17.875000 0.001000
vt 17.875000 0.999000
vt 17.125000 0.999000
vt 18.125000 0.001000
vt 18.875000 0.001000
vt 18.875000 0.999000
vt 18.125000 0.999000
vt 19.125000 0.001000
vt 19.875000 0.001000
vt 19.875000 0.999000
vt 19.125000 0.999000
vt 20.125000 0.001000
vt 20.875000 0.001000
vt 20.875000 0.999000
vt 20.125000 0.999000
vt 21.125000 0.001000
vt 21.875000 0.001000
vt 21.875000 0.999000
vt 21.125000 0.999000
vt 22.125000 0.001000
vt 22.875000 0.001000
vt 22.875000 0.999000
vt 22.125000 0.999000
vt 23.125000 0.001000
vt 23.875000 0.001000
vt 23.875000 0.999000
vt 23.125000 0.999000
vt 24.125000 0.001000
vt 24.875000 0.001000
vt 24.875000 0.999000
vt 24.125000 0.999000
vt 25.125000 0.001000
vt 25.875000 0.001000
vt 25.875000 0.999000
vt 25.125000 0.999000
vt 26.125000 0.001000
vt 26.875000 0.001000
vt 26.875000 0.999000
vt 26.125000 0.999000
vt 27.125000 0.001000
vt 27.875000 0.001000
vt 27.875000 0.999000
vt 27.125000 0.999000
vt 28.125000 0.001000
vt 28.875000 0.001000
vt 28.875000 0.999000
vt 28.125000 0.999000
vt 29.125000 0.001000
vt 29.875000 0.001000
vt 29.875000 0.999000
vt 29.125000 0.999000
vt 30.125000 0.001000
vt 30.875000 0.001000
vt 30.875000 0.999000
vt 30.125000 0.999000
vt 31.125000 0.001000
vt 31.875000 0.001000
vt 31.875000 0.999000
vt 31.125000 0.999000
vt 32.125000 0.001000
vt 32.875000 0.001000
vt 32.875000 0.999000
vt 32.125000 0.999000
vt 33.125000 0.001000
vt 33.875000 0.001000
vt 33.875000 0.999000
vt 33.125000 0.999000
vt 34.125000 0.001000
vt 34.875000 0.001000
vt 34.875000 0.999000
vt 34.125000 0.999000
vt 35.125000 0.001000
vt 35.875000 0.001000
vt 35.875000 0.999000
vt 35.125000 0.999000
vt 36.125000 0.001000
vt 36.875000 0.001000
vt 36.875000 0.999000
vt 36.125000 0.999000
vt 37.125000 0.001000
vt 37.875000 0.001000
vt 37.875000 0.999000
vt 37.125000 0.999000
vt 38.125000 0.001000
vt 38.875000 0.001000
vt 38.875000 0.999000
vt 38.125000 0.999000
vt 39.125000 0.001000
vt 39.875000 0.001000
vt 39.875000 0.999000
vt 39.125000 0.999000
f 1/1 2/2 3/3
f 1/1 3/3 4/4
f 5/5 6/6 7/7
f 5/5 7/7 8/8
f 9/9 10/10 11/11
f 9/9 11/11 12/12
f 13/13 14/14 15/15
f 13/13 15/15 16/16
f 17/17 18/18 19/19
f 17/17 19/19 20/20
f 21/21 22/22 23/23
f 21/21 23/23 24/24
f 25/25 26/26 27/27
f 25/25 27/27 28/28
f 29/29 30/30 31/31
f 29/29 31/31 32/32
f 33/33 34/34 35/35
f 33/33 35/35 36/36
f 37/37 38/38 39/39
f 37/37 39/39 40/40
f 41/41 42/42 43/43
f 41/41 43/43 44/44
f 45/45 46/46 47/47
f 45/45 47/47 48/48
f 49/49 50/50 51/51
f 49/49 51/51 52/52
f 53/53 54/54 55/55
f 53/53 55/55 56/56
f 57/57 58/58 59/59
f 57/57 59/59 60/60
f 61/61 62/62 63/63
f 61/61 63/63 64/64
f 65/65 66/66 67/67
f 65/65 67/67 68/68
f 69/69 70/70 71/71
f 69/69 71/71 72/72
f 73/73 74/74 75/75
f 73/73 75/75 76/76
f 77/77 78/78 79/79
f 77/77 79/79 80/80
f 81/81 82/82 83/83
f 81/81 83/83 84/84
f 85/85 86/86 87/87
f 85/85 87/87 88/88
f 89/89 90/90 91/91
f 89/89 91/91 92/92
f 93/93 94/94 95/95
f 93/93 95/95 96/96
f 97/97 98/98 99/99
f 97/97 99/99 100/100
f 101/101 102/102 103/103
f 101/101 103/103 104/104
f 105/105 106/106 107/107
f 105/105 107/107 108/108
f 109/109 110/110 111/111
f 109/109 111/111 112/112
f 113/113 114/114 115/115
f 113/113 115/115 116/116
f 117/117 118/118 119/119
f 117/117 119/119 120/120
f 121/121 122/122 123/123
f 121/121 123/123 124/124
f 125/125 126/126 127/127
f 125/125 127/127 128/128
f 129/129 130/130 131/131
f 129/129 131/131 132/132
f 133/133 134/134 135/135
f 133/133 135/135 136/136
f 137/137 138/138 139/139
f 137/137 139/139 140/140
f 141/141 142/142 143/143
f 141/141 143/143 144/144
f 145/145 146/146 147/147
f 145/145 147/147 148/148
f 149/149 150/150 151/151
f 149/149 151/151 152/152
f 153/153 154/154 155/155
f 153/153 155/155 156/156
f 157/157 158/158 159/159
f 157/157 159/159 160/160
